<svg xmlns="http://www.w3.org/2000/svg" width="16" height="16" viewBox="0 0 16 16" data-test="chore-icon"><g id="Chore16" fill="#000000"><path d="M13.48 8.38V8v-.38l1-.85a1 1 0 0 0 .2-1.25l-1.18-2a1 1 0 0 0-.86-.5.86.86 0 0 0-.32 0l-1.22.41a5.38 5.38 0 0 0-.66-.38l-.28-1.25a1 1 0 0 0-1-.8H6.82a1 1 0 0 0-1 .8l-.23 1.26a7.26 7.26 0 0 0-.67.38L3.71 3a.86.86 0 0 0-.32 0 1 1 0 0 0-.86.5l-1.18 2a1 1 0 0 0 .2 1.25l1 .85v.76l-1 .85a1 1 0 0 0-.2 1.25l1.18 2a1 1 0 0 0 .86.5.86.86 0 0 0 .32 0l1.22-.41a5.38 5.38 0 0 0 .66.38l.25 1.26a1 1 0 0 0 1 .8h2.34a1 1 0 0 0 1-.8l.25-1.26a7.26 7.26 0 0 0 .67-.38l1.21.41a.86.86 0 0 0 .32 0 1 1 0 0 0 .86-.5l1.18-2a1 1 0 0 0-.2-1.25zM12.61 12l-1.72-.58a4.45 4.45 0 0 1-1.35.78L9.18 14H6.82l-.36-1.78a4.4 4.4 0 0 1-1.34-.78L3.39 12l-1.18-2 1.37-1.2a4.31 4.31 0 0 1 0-1.56L2.21 6l1.18-2 1.72.58a4.45 4.45 0 0 1 1.35-.78L6.82 2h2.36l.36 1.78a4.4 4.4 0 0 1 1.34.78L12.61 4l1.18 2-1.37 1.2a4.31 4.31 0 0 1 0 1.56L13.79 10z M8.5 3.49h-1v4.72l2.78 2.8.7-.71L8.5 7.79v-4.3z"></path></g></svg>